HIERARCHY
ROOT Hips
{
 OFFSET 0.000000 0.000000 0.000000
 CHANNELS 6 Xposition Yposition Zposition Yrotation Xrotation Zrotation
 JOINT Chest
 {
  OFFSET 0.000000 10.080317 -0.001081
  CHANNELS 3 Yrotation Xrotation Zrotation
  JOINT Chest2
  {
   OFFSET 0.000000 11.096852 0.001963
   CHANNELS 3 Yrotation Xrotation Zrotation
   JOINT Chest3
   {
    OFFSET 0.000000 10.026525 0.000000
    CHANNELS 3 Yrotation Xrotation Zrotation
    JOINT Chest4
    {
     OFFSET 0.000000 10.026525 0.000000
     CHANNELS 3 Yrotation Xrotation Zrotation
     JOINT Neck
     {
      OFFSET 0.000000 14.108171 0.000000
      CHANNELS 3 Yrotation Xrotation Zrotation
      JOINT Head
      {
       OFFSET 0.000000 9.333493 0.004668
       CHANNELS 3 Yrotation Xrotation Zrotation
       End Site
       {
        OFFSET 0.000000 17.851786 0.002438
       }
      }
     }
     JOINT RightCollar
     {
      OFFSET -3.071622 7.873185 0.000000
      CHANNELS 3 Yrotation Xrotation Zrotation
      JOINT RightShoulder
      {
       OFFSET -14.378659 0.000000 0.000000
       CHANNELS 3 Yrotation Xrotation Zrotation
       JOINT RightElbow
       {
        OFFSET -30.778728 0.000000 0.000000
        CHANNELS 3 Yrotation Xrotation Zrotation
        JOINT RightWrist
        {
         OFFSET -25.164217 0.000000 0.000000
         CHANNELS 3 Yrotation Xrotation Zrotation
         End Site
         {
          OFFSET -18.796788 0.000000 0.000000
         }
        }
       }
      }
     }
     JOINT LeftCollar
     {
      OFFSET 3.071622 7.873185 0.000000
      CHANNELS 3 Yrotation Xrotation Zrotation
      JOINT LeftShoulder
      {
       OFFSET 14.378659 0.000000 0.000000
       CHANNELS 3 Yrotation Xrotation Zrotation
       JOINT LeftElbow
       {
        OFFSET 30.778728 0.000000 0.000000
        CHANNELS 3 Yrotation Xrotation Zrotation
        JOINT LeftWrist
        {
         OFFSET 25.164217 0.000000 0.000000
         CHANNELS 3 Yrotation Xrotation Zrotation
         End Site
         {
          OFFSET 18.796788 0.000000 0.000000
         }
        }
       }
      }
     }
    }
   }
  }
 }
 JOINT RightHip
 {
  OFFSET -8.194923 0.005295 0.000540
  CHANNELS 3 Yrotation Xrotation Zrotation
  JOINT RightKnee
  {
   OFFSET 0.000000 -42.473320 -0.000511
   CHANNELS 3 Yrotation Xrotation Zrotation
   JOINT RightAnkle
   {
    OFFSET 0.000000 -41.474259 -0.000865
    CHANNELS 3 Yrotation Xrotation Zrotation
    JOINT RightToe
    {
     OFFSET 0.000000 -7.354994 16.712725
     CHANNELS 3 Yrotation Xrotation Zrotation
     End Site
     {
      OFFSET 0.000000 -1.553903 6.764158
     }
    }
   }
  }
 }
 JOINT LeftHip
 {
  OFFSET 8.194923 0.005295 0.000540
  CHANNELS 3 Yrotation Xrotation Zrotation
  JOINT LeftKnee
  {
   OFFSET 0.000000 -42.473320 -0.000511
   CHANNELS 3 Yrotation Xrotation Zrotation
   JOINT LeftAnkle
   {
    OFFSET 0.000000 -41.474259 -0.000865
    CHANNELS 3 Yrotation Xrotation Zrotation
    JOINT LeftToe
    {
     OFFSET 0.000000 -7.354994 16.712725
     CHANNELS 3 Yrotation Xrotation Zrotation
     End Site
     {
      OFFSET 0.000000 -1.553903 6.764158
     }
    }
   }
  }
 }
}
MOTION
Frames: 12
Frame Time: 0.016667
0.000000 91.111157 0.000000 0.000000 -5.826342 0.000000 0.000000 11.116423 0.000000 0.000000 -5.290081 0.000000 0.000000 0.000000 0.000000 0.000000 0.000000 0.000000 0.000000 12.665069 0.000000 0.000000 0.575450 0.000000 0.000000 0.000000 0.000000 0.000000 0.000000 0.000000 2.337306 0.000000 0.000000 -2.337306 0.000000 0.000000 0.000000 0.000000 0.000000 0.000000 0.000000 0.000000 -2.337306 0.000000 0.000000 2.337306 0.000000 0.000000 0.000000 8.578828 0.000000 0.000000 1.905768 0.000000 0.000000 -4.658254 0.000000 0.000000 0.000000 0.000000 0.000000 8.578828 0.000000 0.000000 1.905768 0.000000 0.000000 -4.658254 0.000000 0.000000 0.000000 0.000000
-56.714122 92.588476 80.948963 -2.197362 -5.386876 0.393119 0.075399 2.827873 -0.264515 0.032871 1.260683 -0.166956 0.032871 1.260683 -0.166956 0.024997 0.945503 -0.125280 0.589431 18.784212 1.197187 0.693627 -1.301316 2.004807 -1.999489 0.446235 9.495509 -3.093787 -2.823332 76.198187 8.728208 10.835928 3.466415 -4.212190 -0.863858 -0.386601 -3.122349 -0.066730 -5.390606 -2.553875 -7.198563 -72.311970 -8.540712 21.481251 -13.100749 3.485964 1.657426 11.494912 -7.359158 8.615858 -3.173474 -0.989711 3.043263 -0.701635 -8.252384 -5.712299 3.221887 -0.028498 0.184260 -0.029196 4.145395 11.359169 5.480049 -2.904712 -0.275669 0.774631 -0.395352 -4.748899 -5.096876 0.003984 -0.155247 -0.121101
-56.784421 92.592728 80.892389 -2.140522 -5.411736 0.395878 0.064905 2.851184 -0.251278 0.028357 1.269059 -0.162073 0.028357 1.269059 -0.162073 0.021604 0.951787 -0.121609 0.579958 18.794088 1.195512 0.676911 -1.282874 2.004775 -1.995582 0.464030 9.462991 -3.088359 -2.832024 76.261571 8.836504 10.876628 3.553388 -4.226264 -0.855212 -0.361715 -3.104495 -0.071242 -5.371245 -2.588074 -7.169828 -72.318221 -8.604043 21.586077 -13.160506 3.526622 1.682697 11.498500 -7.356637 8.670123 -3.152630 -1.017575 2.940958 -0.649640 -8.272808 -5.658673 3.170646 -0.027365 0.173622 -0.051695 4.223600 11.287088 5.530860 -2.984001 -0.201525 0.794922 -0.446041 -4.721393 -5.125170 0.002956 -0.171469 -0.118916
-56.867610 92.594291 80.836892 -2.088900 -5.404859 0.392288 0.058520 2.857730 -0.236881 0.024860 1.270467 -0.158847 0.024860 1.270467 -0.158847 0.018974 0.952844 -0.119182 0.574132 18.806840 1.199907 0.664956 -1.259105 2.014682 -1.992671 0.462938 9.453173 -3.098584 -2.805936 76.298758 8.937652 10.910154 3.644030 -4.264704 -0.858021 -0.316752 -3.095161 -0.073319 -5.360429 -2.585791 -7.140535 -72.323511 -8.719516 21.751180 -13.245552 3.544166 1.714616 11.505471 -7.389368 8.688476 -3.124276 -1.012329 2.844638 -0.590798 -8.269158 -5.610093 3.108201 -0.022402 0.166321 -0.069240 4.293146 11.176160 5.603247 -3.061792 -0.109143 0.791529 -0.482628 -4.710478 -5.157343 0.002854 -0.179947 -0.111611
-56.958444 92.595028 80.787582 -2.054085 -5.377653 0.398737 0.050695 2.862802 -0.217117 0.021033 1.271661 -0.152884 0.021033 1.271661 -0.152884 0.016092 0.953740 -0.114702 0.573742 18.820975 1.198411 0.664887 -1.232859 2.012025 -1.980305 0.452103 9.415932 -3.088573 -2.787340 76.332831 9.010869 10.941259 3.707508 -4.272570 -0.869716 -0.255525 -3.052329 -0.085851 -5.363655 -2.593659 -7.132197 -72.311170 -8.844909 21.895916 -13.355765 3.562963 1.735374 11.507047 -7.390254 8.675453 -3.093406 -1.053487 2.777703 -0.534374 -8.251425 -5.579004 3.053002 -0.021423 0.161704 -0.089689 4.327473 11.054233 5.665807 -3.109940 -0.012989 0.779270 -0.501777 -4.705941 -5.186591 0.003839 -0.188241 -0.108686
-57.051804 92.595317 80.736969 -2.030859 -5.348838 0.412193 0.050930 2.866542 -0.202061 0.021780 1.274057 -0.148297 0.021780 1.274057 -0.148297 0.016644 0.955538 -0.111263 0.573153 18.829688 1.195694 0.664787 -1.216686 2.007209 -1.972231 0.433674 9.392006 -3.051633 -2.774469 76.351836 9.051367 10.950504 3.719381 -4.286603 -0.861479 -0.216319 -3.034464 -0.094541 -5.361139 -2.573360 -7.133906 -72.304016 -8.944634 22.000050 -13.441741 3.567032 1.747377 11.492443 -7.380846 8.653667 -3.075110 -1.078077 2.720159 -0.470599 -8.214459 -5.553338 3.000439 -0.023932 0.161524 -0.110681 4.338972 10.942689 5.720273 -3.152780 0.066365 0.762197 -0.498936 -4.693787 -5.211380 0.004791 -0.194381 -0.108857
-57.145257 92.594840 80.690556 -2.030470 -5.322784 0.422324 0.053805 2.876722 -0.184718 0.022656 1.278009 -0.144366 0.022656 1.278009 -0.144366 0.017293 0.958502 -0.108317 0.576355 18.831435 1.190163 0.672461 -1.213507 1.996030 -1.948825 0.415860 9.387669 -3.016823 -2.773022 76.339072 9.050847 10.927387 3.721731 -4.298311 -0.858202 -0.205459 -3.020488 -0.090150 -5.355659 -2.566268 -7.137936 -72.311452 -8.990722 22.017703 -13.472422 3.553162 1.757676 11.528431 -7.341389 8.623129 -3.026576 -1.083996 2.689366 -0.443220 -8.221230 -5.535425 2.961929 -0.024466 0.162572 -0.125346 4.326721 10.828707 5.758246 -3.146229 0.177625 0.765962 -0.492629 -4.705023 -5.240164 0.001277 -0.197744 -0.112941
-57.237368 92.594658 80.646745 -2.036299 -5.308458 0.444397 0.054162 2.883849 -0.169178 0.021861 1.282262 -0.139750 0.021861 1.282262 -0.139750 0.016688 0.961692 -0.104854 0.589965 18.829201 1.174179 0.702548 -1.217889 1.962333 -1.915292 0.425371 9.373851 -3.018669 -2.779692 76.307623 9.070244 10.918214 3.726811 -4.307270 -0.841775 -0.205308 -2.994193 -0.075271 -5.353060 -2.570795 -7.131168 -72.339977 -9.010098 21.998863 -13.452806 3.547947 1.742130 11.556401 -7.293847 8.579227 -2.981345 -1.082882 2.707162 -0.435914 -8.250554 -5.537086 2.930863 -0.024257 0.162343 -0.130551 4.339961 10.732018 5.792139 -3.154043 0.279798 0.767622 -0.497280 -4.712064 -5.271880 -0.000936 -0.203587 -0.113742
-57.334549 92.593836 80.614192 -2.038184 -5.313136 0.467091 0.058404 2.902447 -0.154241 0.022440 1.290535 -0.135860 0.022440 1.290535 -0.135860 0.017116 0.967896 -0.101938 0.605148 18.831458 1.159881 0.735024 -1.213928 1.931211 -1.887025 0.433853 9.360592 -3.043652 -2.773944 76.267494 9.109757 10.904793 3.749729 -4.309549 -0.838630 -0.209356 -2.985066 -0.060207 -5.341478 -2.577067 -7.125391 -72.367664 -9.007220 21.977952 -13.446026 3.526569 1.738530 11.606244 -7.258049 8.550287 -2.938059 -1.064855 2.751175 -0.420768 -8.299143 -5.567601 2.879832 -0.024856 0.166840 -0.123343 4.370740 10.658640 5.845975 -3.187475 0.382346 0.744611 -0.497433 -4.725706 -5.291409 -0.002257 -0.211000 -0.116598
-57.435311 92.591166 80.583360 -2.025266 -5.328309 0.472635 0.048894 2.919260 -0.120936 0.018352 1.298967 -0.130078 0.018352 1.298967 -0.130078 0.014040 0.974222 -0.097593 0.615150 18.836085 1.141432 0.759365 -1.205516 1.894148 -1.886165 0.438775 9.333824 -3.055113 -2.761767 76.228628 9.155646 10.906708 3.784306 -4.303635 -0.809842 -0.199963 -2.986512 -0.046956 -5.341154 -2.575696 -7.111159 -72.406755 -9.008289 21.980998 -13.445944 3.518037 1.752665 11.635269 -7.215217 8.533709 -2.885870 -1.046840 2.809052 -0.389198 -8.333969 -5.642584 2.813728 -0.027025 0.197347 -0.112263 4.424105 10.570106 5.929840 -3.224390 0.520783 0.711734 -0.531792 -4.737610 -5.305855 -0.005866 -0.237496 -0.121405
-57.530776 92.586077 80.555955 -2.007637 -5.339322 0.485238 0.021162 2.942113 -0.099378 0.007364 1.308392 -0.121193 0.007364 1.308392 -0.121193 0.005782 0.981292 -0.090907 0.629600 18.847084 1.125625 0.791069 -1.185296 1.860486 -1.869165 0.435490 9.318941 -3.067500 -2.753862 76.177476 9.194688 10.922361 3.831630 -4.296707 -0.802067 -0.188028 -2.977766 -0.031803 -5.359251 -2.585072 -7.097338 -72.410660 -9.045559 21.992278 -13.476606 3.531722 1.769298 11.640749 -7.141932 8.520513 -2.833766 -1.046126 2.857411 -0.366809 -8.412938 -5.703506 2.760866 -0.030299 0.216826 -0.105737 4.470381 10.466442 5.996037 -3.293954 0.691345 0.689029 -0.534629 -4.803311 -5.321485 -0.006741 -0.231823 -0.125502
-57.626859 92.581616 80.527696 -1.986121 -5.347436 0.489280 0.002616 2.950838 -0.080867 -0.000464 1.312899 -0.112996 -0.000464 1.312899 -0.112996 -0.000105 0.984674 -0.084742 0.636525 18.865906 1.114697 0.807477 -1.150447 1.838195 -1.871214 0.462725 9.309130 -3.101407 -2.754378 76.132367 9.224063 10.933516 3.868266 -4.280287 -0.794259 -0.178931 -2.996905 0.010380 -5.359469 -2.624533 -7.094883 -72.416422 -9.083099 22.014612 -13.518750 3.532107 1.811212 11.637673 -7.008985 8.501207 -2.760305 -1.076272 2.915396 -0.350465 -8.519100 -5.760075 2.709247 -0.025999 0.228712 -0.097948 4.502885 10.350243 6.075683 -3.362445 0.882310 0.645885 -0.525202 -4.881826 -5.326185 -0.012488 -0.224707 -0.128531
